<?xml version="1.0" encoding="UTF-8" standalone="no"?><!DOCTYPE svg PUBLIC "-//W3C//DTD SVG 1.1//EN" "http://www.w3.org/Graphics/SVG/1.1/DTD/svg11.dtd"><svg width="100%" height="100%" viewBox="0 0 48 43" version="1.1" xmlns="http://www.w3.org/2000/svg" xmlns:xlink="http://www.w3.org/1999/xlink" xml:space="preserve" xmlns:serif="http://www.serif.com/" style="fill-rule:evenodd;clip-rule:evenodd;stroke-linecap:round;stroke-linejoin:round;stroke-miterlimit:1.5;"><g><g><ellipse cx="17.358" cy="10.312" rx="5.462" ry="7.187" style="fill:#fff;stroke:#fff;stroke-width:6.25px;"/><ellipse cx="29.944" cy="10.312" rx="5.559" ry="7.187" style="fill:#fff;stroke:#fff;stroke-width:6.25px;"/><path d="M40.879,13.984c2.621,0.652 4.109,3.752 3.321,6.918c-0.789,3.165 -3.556,5.206 -6.177,4.553c-2.621,-0.653 -4.109,-3.753 -3.321,-6.918c0.788,-3.166 3.556,-5.206 6.177,-4.553Z" style="fill:#fff;stroke:#fff;stroke-width:6.25px;"/><path d="M6.657,13.984c-2.621,0.652 -4.109,3.752 -3.321,6.918c0.788,3.165 3.556,5.206 6.177,4.553c2.621,-0.653 4.109,-3.753 3.321,-6.918c-0.789,-3.166 -3.556,-5.206 -6.177,-4.553Z" style="fill:#fff;stroke:#fff;stroke-width:6.25px;"/><path d="M11.012,35.393c0,0 2.453,7.007 9.56,3.003c1.417,-0.428 2.772,-0.721 4.265,-0.422c2.516,0.503 6.423,2.686 9.109,0.831c5.546,-3.832 1.757,-12.173 -1.789,-15.834c-1.596,-1.648 -3.361,-3.089 -5.551,-3.794c-5.934,-1.912 -11.556,2.486 -14.143,7.548c-1.34,2.624 -2.086,5.732 -1.451,8.668Z" style="fill:#fff;stroke:#fff;stroke-width:6.25px;"/></g><g><g><ellipse cx="17.358" cy="10.312" rx="5.462" ry="7.187" style="fill:#fadb9e;"/><ellipse cx="29.944" cy="10.312" rx="5.559" ry="7.187" style="fill:#fadb9e;"/><path d="M40.879,13.984c2.621,0.652 4.109,3.752 3.321,6.918c-0.789,3.165 -3.556,5.206 -6.177,4.553c-2.621,-0.653 -4.109,-3.753 -3.321,-6.918c0.788,-3.166 3.556,-5.206 6.177,-4.553Z" style="fill:#fadb9e;"/><path d="M6.657,13.984c-2.621,0.652 -4.109,3.752 -3.321,6.918c0.788,3.165 3.556,5.206 6.177,4.553c2.621,-0.653 4.109,-3.753 3.321,-6.918c-0.789,-3.166 -3.556,-5.206 -6.177,-4.553Z" style="fill:#fadb9e;"/></g><path d="M11.012,35.393c0,0 2.453,7.007 9.56,3.003c1.417,-0.428 2.772,-0.721 4.265,-0.422c2.516,0.503 6.423,2.686 9.109,0.831c5.546,-3.832 1.757,-12.173 -1.789,-15.834c-1.596,-1.648 -3.361,-3.089 -5.551,-3.794c-5.934,-1.912 -11.556,2.486 -14.143,7.548c-1.34,2.624 -2.086,5.732 -1.451,8.668Z" style="fill:#fadb9e;"/></g></g></svg>