<?xml version="1.0" encoding="UTF-8" standalone="no"?><!DOCTYPE svg PUBLIC "-//W3C//DTD SVG 1.1//EN" "http://www.w3.org/Graphics/SVG/1.1/DTD/svg11.dtd"><svg width="100%" height="100%" viewBox="0 0 34 31" version="1.1" xmlns="http://www.w3.org/2000/svg" xmlns:xlink="http://www.w3.org/1999/xlink" xml:space="preserve" xmlns:serif="http://www.serif.com/" style="fill-rule:evenodd;clip-rule:evenodd;stroke-linecap:round;stroke-linejoin:round;stroke-miterlimit:1.5;"><g id="Layer1"><g><ellipse cx="12.622" cy="7.921" rx="3.645" ry="4.796" style="fill:#fff;stroke:#fff;stroke-width:6.25px;"/><ellipse cx="21.021" cy="7.921" rx="3.71" ry="4.796" style="fill:#fff;stroke:#fff;stroke-width:6.25px;"/><path d="M28.318,10.371c1.749,0.436 2.742,2.504 2.216,4.616c-0.526,2.113 -2.373,3.474 -4.122,3.039c-1.749,-0.436 -2.742,-2.504 -2.216,-4.617c0.526,-2.112 2.373,-3.473 4.122,-3.038Z" style="fill:#fff;stroke:#fff;stroke-width:6.25px;"/><path d="M5.482,10.371c-1.749,0.436 -2.742,2.504 -2.216,4.616c0.526,2.113 2.373,3.474 4.122,3.039c1.749,-0.436 2.742,-2.504 2.216,-4.617c-0.526,-2.112 -2.373,-3.473 -4.122,-3.038Z" style="fill:#fff;stroke:#fff;stroke-width:6.25px;"/><path d="M8.388,24.658c0,-0 1.637,4.676 6.379,2.004c0.946,-0.286 1.85,-0.482 2.847,-0.282c1.679,0.336 4.286,1.792 6.078,0.554c3.701,-2.557 1.172,-8.123 -1.194,-10.566c-1.065,-1.099 -2.243,-2.061 -3.704,-2.532c-3.96,-1.275 -7.712,1.66 -9.437,5.037c-0.895,1.751 -1.393,3.825 -0.969,5.785Z" style="fill:#fff;stroke:#fff;stroke-width:6.25px;"/></g><g><g><ellipse cx="12.622" cy="7.921" rx="3.645" ry="4.796" style="fill:#6d4f45;"/><ellipse cx="21.021" cy="7.921" rx="3.71" ry="4.796" style="fill:#6d4f45;"/><path d="M28.318,10.371c1.749,0.436 2.742,2.504 2.216,4.616c-0.526,2.113 -2.373,3.474 -4.122,3.039c-1.749,-0.436 -2.742,-2.504 -2.216,-4.617c0.526,-2.112 2.373,-3.473 4.122,-3.038Z" style="fill:#6d4f45;"/><path d="M5.482,10.371c-1.749,0.436 -2.742,2.504 -2.216,4.616c0.526,2.113 2.373,3.474 4.122,3.039c1.749,-0.436 2.742,-2.504 2.216,-4.617c-0.526,-2.112 -2.373,-3.473 -4.122,-3.038Z" style="fill:#6d4f45;"/></g><path d="M8.388,24.658c0,-0 1.637,4.676 6.379,2.004c0.946,-0.286 1.85,-0.482 2.847,-0.282c1.679,0.336 4.286,1.792 6.078,0.554c3.701,-2.557 1.172,-8.123 -1.194,-10.566c-1.065,-1.099 -2.243,-2.061 -3.704,-2.532c-3.96,-1.275 -7.712,1.66 -9.437,5.037c-0.895,1.751 -1.393,3.825 -0.969,5.785Z" style="fill:#6d4f45;"/></g></g></svg>